<svg width="280" height="280" viewBox="0 0 280 280" fill="none" xmlns="http://www.w3.org/2000/svg">
<g clip-path="url(#clip0_8_1292)">
<path d="M59 123.262C86.5363 106.025 119.402 113.283 138.056 141.405V204C127.397 186.764 95.419 164.992 59 186.764V123.262Z" fill="#155DFC"/>
<path d="M217.112 123.262C186.911 104.211 151.38 117.818 138.056 141.405V204C161.151 172.249 194.017 172.249 218 187.671L217.112 123.262Z" fill="#155DFC"/>
<path d="M128.755 130.857L137.556 141.584V202.308C132 194.096 121.892 185.2 108.944 180.493C95.2224 175.505 78.3172 175.225 60.2931 185.433C59.9285 185.639 59.5 185.369 59.5 185.001V123.815C59.5 123.644 59.59 123.483 59.735 123.394C82.9784 109.113 109.927 112.338 128.755 130.857ZM176.693 177.794C163.128 180.006 149.742 187.663 138.556 202.485V141.537C140.749 137.681 143.545 134.092 146.821 130.876C163.214 114.78 191.562 108.04 216.385 123.397C216.528 123.485 216.617 123.643 216.619 123.811L217.474 185.816C217.48 186.208 217.035 186.473 216.678 186.257C204.678 178.995 190.616 175.523 176.693 177.794Z" stroke="url(#paint0_linear_8_1292)" stroke-linejoin="round"/>
<path d="M159.049 209.782C155.809 216.292 149.42 219.772 139.5 219.989V212.087C146.636 211.547 152.668 205.298 152.896 198.083C160.73 190.424 173.907 186.094 187.412 186.203C201.069 186.314 214.829 190.963 223.522 201.007C223.795 201.322 224.236 201.435 224.627 201.289C225.018 201.144 225.278 200.77 225.278 200.352V143.184L234 143.184V202.768C231.564 206.806 228.906 210.117 225.238 213.339C219.841 207.93 208.668 201.991 196.427 199.706C183.627 197.316 169.373 198.874 159.22 209.538C159.151 209.61 159.094 209.692 159.049 209.782ZM137.5 212.087V219.989C127.45 219.772 120.372 216.252 117.992 209.878C117.938 209.731 117.849 209.599 117.734 209.493C106.263 198.89 91.8328 197.311 79.2294 199.707C67.2533 201.983 56.7334 207.883 51.7468 213.292C48.3506 210.185 46.3035 207.877 43 203.602V143L51.7222 143V200.352C51.7222 200.771 51.9833 201.146 52.3764 201.291C52.7694 201.435 53.2111 201.32 53.483 201.001C61.2939 191.846 74.398 186.756 87.9453 186.202C101.34 185.655 114.968 189.553 124.104 198.096C124.34 205.306 130.369 211.548 137.5 212.087Z" fill="#155DFC" stroke="#155DFC" stroke-width="2" stroke-linejoin="round"/>
<path d="M139 59.5089L161.664 63.793L154.353 70.1812H124.547L116.406 63.7797L139 59.5089ZM124.68 71.1812H154.216L160.169 84.558H117.876L124.68 71.1812ZM160.048 85.558L139 120.04L117.952 85.558H160.048ZM123.742 70.8204L116.831 84.4072L101.863 77.7082L115.274 64.1615L123.742 70.8204ZM135.59 116.373L102.897 79.2665L116.715 85.4509L135.59 116.373ZM176.137 77.7082L161.192 84.3969L155.147 70.8149L162.743 64.1784L176.137 77.7082ZM161.285 85.4509L175.103 79.2665L142.41 116.373L161.285 85.4509Z" fill="url(#paint1_linear_8_1292)" stroke="black"/>
</g>
<rect x="2" y="2" width="276" height="276" rx="138" stroke="#155DFC" stroke-width="4"/>
<defs>
<linearGradient id="paint0_linear_8_1292" x1="138.5" y1="114" x2="138.5" y2="204" gradientUnits="userSpaceOnUse">
<stop stop-color="#FCE514"/>
<stop offset="0.285" stop-color="#FFFBE3"/>
<stop offset="0.528291" stop-color="#FCD214"/>
<stop offset="0.735" stop-color="#FFFBE3"/>
<stop offset="0.98" stop-color="#FCB614"/>
</linearGradient>
<linearGradient id="paint1_linear_8_1292" x1="178.308" y1="59.8985" x2="139.522" y2="91.0984" gradientUnits="userSpaceOnUse">
<stop stop-color="white"/>
<stop offset="1" stop-color="#155DFC"/>
</linearGradient>
<clipPath id="clip0_8_1292">
<rect x="4" y="4" width="272" height="272" rx="136" fill="white"/>
</clipPath>
</defs>
</svg>
