<svg width="130" height="130" viewBox="0 0 130 130" fill="none" xmlns="http://www.w3.org/2000/svg">
<rect x="1" y="1" width="128" height="128" rx="16" fill="#27B08B"/>
<rect x="1" y="1" width="128" height="128" rx="16" stroke="#171918"/>
<path d="M61 61C63 59 62 49 65 49C68 49 67 59 69 61C71 63 81 62 81 65C81 68 71 67 69 69C67 71 68 81 65 81C62 81 63 71 61 69C59 67 49 68 49 65C49 62 59 63 61 61Z" stroke="#27B08B"/>
<path d="M109 57C121 41 128 25 117 13C105 2 65 25 32 57M21 73C9.00001 89 2.00001 105 13 117.5C25 128 65 105 97 73M57 25C45 12.9999 25 1.99998 13 12.9999C2.00001 25 17 57 49 89M73 105C85 117 105 128 117 117C128 105 113 73 80.5 40.9999" stroke="#171918" stroke-width="4" stroke-linecap="round"/>
<path d="M25 41L49 65C49 65 59 63 61 61C63 59 65 49 65 49L41 25C41 25 35.9639 24.012 33 25C28.8085 26.3972 26.3972 28.8085 25 33C24.012 35.9639 25 41 25 41Z" fill="#171918"/>
<path d="M89 25L65 49C65 49 67 59 69 61C71 63 81 65 81 65L105 41C105 41 105.988 35.9639 105 33C103.603 28.8085 101.192 26.3972 97 25C94.0361 24.012 89 25 89 25Z" fill="#171918"/>
<path d="M49 65L25 89C25 89 24.0659 94.0187 25 97C26.363 101.35 28.6836 104.034 33 105.5C35.9583 106.505 41 105.5 41 105.5L65 81C65 81 63 71 61 69C59 67 49 65 49 65Z" fill="#171918"/>
<path fill-rule="evenodd" clip-rule="evenodd" d="M105 89L81 65C81 65 71 67 69 69C67 71 65 81 65 81L89 105C89 105 94.0361 105.988 97 105C101.192 103.603 103.603 101.192 105 97C105.988 94.0361 105 89 105 89ZM76 76L77 73L78 76L81 77L78 78L77 81L76 78L73 77L76 76Z" fill="#171918"/>
<path d="M49 65L25 89C25 89 24.0659 94.0187 25 97C26.363 101.35 28.6836 104.034 33 105.5C35.9583 106.505 41 105.5 41 105.5L65 81M49 65L25 41C25 41 24.012 35.9639 25 33C26.3972 28.8085 28.8085 26.3972 33 25C35.9639 24.012 41 25 41 25L65 49M49 65C49 65 59 63 61 61C63 59 65 49 65 49M49 65C49 65 59 67 61 69C63 71 65 81 65 81M65 49L89 25C89 25 94.0361 24.012 97 25C101.192 26.3972 103.603 28.8085 105 33C105.988 35.9639 105 41 105 41L81 65M65 49C65 49 67 59 69 61C71 63 81 65 81 65M81 65L105 89C105 89 105.988 94.0361 105 97C103.603 101.192 101.192 103.603 97 105C94.0361 105.988 89 105 89 105L65 81M81 65C81 65 71 67 69 69C67 71 65 81 65 81M77 73L76 76L73 77L76 78L77 81L78 78L81 77L78 76L77 73Z" stroke="#171918"/>
</svg>
